<svg width="16" height="20" viewBox="0 0 16 20" fill="none" xmlns="http://www.w3.org/2000/svg">
<path d="M7.85715 0C5.77406 0.00245748 3.77699 0.831051 2.30403 2.30402C0.831059 3.77699 0.00246584 5.77405 8.3592e-06 7.85714C-0.00248656 9.55945 0.553566 11.2156 1.58287 12.5714C1.58287 12.5714 1.79715 12.8536 1.83215 12.8943L7.85715 20L13.885 12.8907C13.9164 12.8529 14.1314 12.5714 14.1314 12.5714L14.1322 12.5693C15.1609 11.214 15.7167 9.55866 15.7143 7.85714C15.7118 5.77405 14.8832 3.77699 13.4103 2.30402C11.9373 0.831051 9.94024 0.00245748 7.85715 0ZM10.8643 8.35857L7.85929 11.4286L4.85001 8.35857C4.48868 7.9855 4.28665 7.48651 4.28665 6.96714C4.28665 6.44778 4.48868 5.94878 4.85001 5.57571C5.0272 5.39359 5.23909 5.24883 5.47317 5.14998C5.70725 5.05113 5.95877 5.0002 6.21287 5.0002C6.46696 5.0002 6.71848 5.05113 6.95256 5.14998C7.18664 5.24883 7.39853 5.39359 7.57572 5.57571L7.85929 5.865L8.14001 5.57571C8.3172 5.39359 8.52909 5.24883 8.76317 5.14998C8.99725 5.05113 9.24877 5.0002 9.50287 5.0002C9.75696 5.0002 10.0085 5.05113 10.2426 5.14998C10.4766 5.24883 10.6885 5.39359 10.8657 5.57571C11.2271 5.94878 11.4291 6.44778 11.4291 6.96714C11.4291 7.48651 11.2271 7.9855 10.8657 8.35857H10.8643Z" fill="#989898"/>
</svg>
